PathFileType	3	(X/Y/Z)	walking_3__fused_aligned.trc
DataRate	CameraRate	NumFrames	NumMarkers	Units	OrigDataRate	OrigDataStartFrame	OrigNumFrames
100.0	100.0	17	19	mm	100.0	5785	6307
Frame#	Time	pelvis			neck			head			hip_left			hip_right			knee_left			knee_right			ankle_left			ankle_right			heel_left			heel_right			toe_left			toe_right			shoulder_left			shoulder_right			elbow_left			elbow_right			wrist_left			wrist_right			
		X1	Y1	Z1	X2	Y2	Z2	X3	Y3	Z3	X4	Y4	Z4	X5	Y5	Z5	X6	Y6	Z6	X7	Y7	Z7	X8	Y8	Z8	X9	Y9	Z9	X10	Y10	Z10	X11	Y11	Z11	X12	Y12	Z12	X13	Y13	Z13	X14	Y14	Z14	X15	Y15	Z15	X16	Y16	Z16	X17	Y17	Z17	X18	Y18	Z18	X19	Y19	Z19	
5785	57.84000	-9.089337	934.013479	173.531545	-34.213675	1491.953907	288.064591	-35.530970	1557.389813	447.161607	69.329660	938.083422	172.964645	-87.508345	929.943534	174.098554	90.607802	514.369932	306.414784	-134.909368	504.451959	236.179410	103.437762	81.520004	310.213863	-162.395103	211.699112	-54.533269	102.602983	25.142695	282.901344	-159.948583	199.542285	-108.486438	96.565661	54.074128	511.964366	-174.870718	55.014287	26.463331	146.324485	1456.912244	230.612309	-212.379330	1429.705446	258.352186	218.177444	1177.892623	137.999395	-268.122151	1135.822015	261.187843	270.278693	913.926245	136.384141	-245.951068	926.137951	417.973637
5786	57.85000	-6.348772	934.005443	173.138639	-31.840663	1491.970298	288.345397	-34.015590	1557.643711	447.351007	72.097550	938.271774	172.472661	-84.795129	929.739106	173.804760	92.548218	512.786101	298.598698	-132.126494	505.796705	243.192618	104.420195	80.247000	299.826001	-160.214272	213.653276	-44.899579	103.409286	23.985256	272.309003	-157.825006	201.584236	-98.587132	98.196861	52.263105	501.337476	-172.507489	57.283829	35.558265	148.801950	1456.877263	232.074775	-209.603613	1429.876309	257.156405	221.356513	1177.902472	140.858738	-265.007404	1136.080812	257.293760	272.671297	914.185769	141.382715	-245.972691	924.060592	409.497418
5787	57.86000	-3.608207	933.997407	172.745734	-29.467651	1491.986688	288.626202	-32.500209	1557.897609	447.540407	74.865440	938.460126	171.980676	-82.081913	929.534677	173.510966	94.488635	511.202271	290.782611	-129.343621	507.141451	250.205826	105.402628	78.973996	289.438138	-158.033440	215.607440	-35.265889	104.215589	22.827817	261.716663	-155.701428	203.626187	-88.687826	99.828062	50.452081	490.710586	-170.144259	59.553371	44.653199	151.279414	1456.842283	233.537241	-206.827895	1430.047171	255.960624	224.535582	1177.912322	143.718081	-261.892657	1136.339610	253.399678	275.063901	914.445293	146.381289	-245.994314	921.983233	401.021200
5788	57.87000	-1.528313	933.886711	171.662150	-27.785691	1491.629010	288.025266	-31.487031	1557.785296	446.759079	76.904024	938.474360	170.819553	-79.960725	929.299054	172.504902	95.572490	510.217026	281.304347	-126.922860	508.738434	257.589299	105.509511	79.327971	272.466729	-155.724373	215.582654	-19.624926	104.134695	23.717213	243.896597	-153.457325	202.933698	-72.282813	100.757330	47.829953	473.053289	-167.651218	62.010887	61.843916	153.116435	1456.539077	234.556646	-204.711705	1429.800263	253.677930	227.379413	1177.716700	147.395976	-259.222391	1136.453681	247.417752	275.624368	915.680389	155.461556	-246.585930	919.792167	389.368522
5789	57.88000	0.551582	933.776015	170.578566	-26.103732	1491.271332	287.424329	-30.473852	1557.672983	445.977752	78.942608	938.488594	169.658430	-77.839538	929.063432	171.498839	96.656344	509.231781	271.826083	-124.502099	510.335416	264.972773	105.616394	79.681946	255.495321	-153.415305	215.557868	-3.983963	104.053801	24.606609	226.076532	-151.213221	202.241210	-55.877799	101.686599	45.207826	455.395992	-165.158176	64.468404	79.034634	154.953456	1456.235871	235.576050	-202.595514	1429.553354	251.395235	230.223243	1177.521078	151.073871	-256.552124	1136.567752	241.435826	276.184835	916.915484	164.541823	-247.177547	917.601101	377.715844
5790	57.89000	2.631476	933.665319	169.494982	-24.421772	1490.913654	286.823393	-29.460674	1557.560671	445.196425	80.981192	938.502828	168.497307	-75.718351	928.827809	170.492775	97.740198	508.246537	262.347819	-122.081338	511.932399	272.356247	105.723278	80.035921	238.523912	-151.106238	215.533082	11.657000	103.972908	25.496004	208.256467	-148.969118	201.548721	-39.472786	102.615867	42.585699	437.738694	-162.665135	66.925920	96.225352	156.790477	1455.932665	236.595454	-200.479324	1429.306446	249.112540	233.067073	1177.325456	154.751766	-253.881858	1136.681823	235.453901	276.745303	918.150580	173.622090	-247.769163	915.410035	366.063165
5791	57.90000	4.711371	933.554623	168.411399	-22.739813	1490.555976	286.222457	-28.447496	1557.448358	444.415098	83.019776	938.517062	167.336184	-73.597163	928.592186	169.486712	98.824052	507.261292	252.869555	-119.660577	513.529382	279.739721	105.830161	80.389896	221.552504	-148.797170	215.508296	27.297963	103.892014	26.385400	190.436401	-146.725014	200.856232	-23.067772	103.545135	39.963571	420.081397	-160.172093	69.383437	113.416070	158.627498	1455.629459	237.614858	-198.363134	1429.059538	246.829846	235.910904	1177.129834	158.429661	-251.211591	1136.795894	229.471975	277.305770	919.385675	182.702357	-248.360779	913.218969	354.410487
5792	57.91000	6.791265	933.443926	167.327815	-21.057853	1490.198298	285.621521	-27.434317	1557.336045	443.633770	85.058360	938.531295	166.175060	-71.475976	928.356564	168.480648	99.907907	506.276048	243.391290	-117.239816	515.126365	287.123194	105.937044	80.743871	204.581096	-146.488102	215.483510	42.938926	103.811120	27.274796	172.616336	-144.480911	200.163743	-6.662759	104.474403	37.341444	402.424100	-157.679052	71.840953	130.606788	160.464519	1455.326253	238.634263	-196.246943	1428.812629	244.547151	238.754734	1176.934212	162.107556	-248.541325	1136.909965	223.490050	277.866237	920.620771	191.782624	-248.952396	911.027903	342.757808
5793	57.92000	8.871160	933.333230	166.244231	-19.375894	1489.840620	285.020584	-26.421139	1557.223732	442.852443	87.096944	938.545529	165.013937	-69.354789	928.120941	167.474585	100.991761	505.290803	233.913026	-114.819055	516.723348	294.506668	106.043927	81.097846	187.609687	-144.179035	215.458724	58.579889	103.730226	28.164191	154.796271	-142.236808	199.471255	9.742255	105.403672	34.719316	384.766802	-155.186010	74.298470	147.797506	162.301540	1455.023047	239.653667	-194.130753	1428.565721	242.264456	241.598565	1176.738590	165.785451	-245.871058	1137.024037	217.508124	278.426704	921.855866	200.862891	-249.544012	908.836837	331.105130
5794	57.93000	10.951055	933.222534	165.160647	-17.693934	1489.482942	284.419648	-25.407960	1557.111420	442.071116	89.135528	938.559763	163.852814	-67.233601	927.885318	166.468521	102.075615	504.305558	224.434762	-112.398294	518.320331	301.890142	106.150810	81.451821	170.638279	-141.869967	215.433938	74.220853	103.649332	29.053587	136.976205	-139.992704	198.778766	26.147268	106.332940	32.097189	367.109505	-152.692969	76.755986	164.988224	164.138561	1454.719841	240.673071	-192.014562	1428.318812	239.981762	244.442395	1176.542968	169.463346	-243.200792	1137.138108	211.526199	278.987171	923.090962	209.943158	-250.135629	906.645771	319.452452
5795	57.94000	13.030949	933.111838	164.077064	-16.011975	1489.125264	283.818712	-24.394782	1556.999107	441.289789	91.174112	938.573997	162.691691	-65.112414	927.649696	165.462458	103.159470	503.320314	214.956498	-109.977533	519.917314	309.273616	106.257694	81.805796	153.666871	-139.560900	215.409152	89.861816	103.568438	29.942983	119.156140	-137.748601	198.086277	42.552282	107.262208	29.475061	349.452208	-150.199927	79.213503	182.178942	165.975582	1454.416635	241.692475	-189.898372	1428.071904	237.699067	247.286226	1176.347346	173.141241	-240.530525	1137.252179	205.544273	279.547638	924.326057	219.023425	-250.727245	904.454705	307.799773
5796	57.95000	15.110844	933.001142	162.993480	-14.330015	1488.767586	283.217776	-23.381603	1556.886794	440.508462	93.212696	938.588231	161.530568	-62.991226	927.414073	164.456394	104.243324	502.335069	205.478234	-107.556772	521.514297	316.657090	106.364577	82.159771	136.695462	-137.251832	215.384366	105.502779	103.487545	30.832378	101.336074	-135.504498	197.393788	58.957295	108.191477	26.852934	331.794911	-147.706886	81.671019	199.369660	167.812603	1454.113429	242.711880	-187.782181	1427.824995	235.416372	250.130056	1176.151724	176.819136	-237.860259	1137.366250	199.562348	280.108105	925.561153	228.103692	-251.318861	902.263640	296.147095
5797	57.96000	17.190738	932.890446	161.909896	-12.648056	1488.409908	282.616839	-22.368425	1556.774481	439.727134	95.251279	938.602465	160.369445	-60.870039	927.178450	163.450331	105.327178	501.349825	195.999970	-105.136011	523.111280	324.040563	106.471460	82.513746	119.724054	-134.942765	215.359580	121.143742	103.406651	31.721774	83.516009	-133.260394	196.701299	75.362308	109.120745	24.230807	314.137613	-145.213844	84.128536	216.560378	169.649624	1453.810223	243.731284	-185.665991	1427.578087	233.133677	252.973886	1175.956103	180.497031	-235.189992	1137.480321	193.580422	280.668572	926.796248	237.183959	-251.910478	900.072574	284.494417
5798	57.97000	16.932659	932.737037	161.271487	-13.253524	1487.880816	282.486007	-23.449394	1556.473197	439.473192	94.951889	938.426918	159.510815	-61.086796	927.047177	163.032143	105.294179	500.339499	188.339208	-104.803207	524.528587	330.767220	104.815716	84.703445	103.670530	-134.749125	213.066293	138.099032	101.405246	34.997498	66.717302	-133.303887	193.114622	93.251520	107.939923	22.732183	295.071986	-144.146980	85.907142	236.977561	169.153516	1453.306545	244.909065	-185.868021	1427.159227	231.811017	253.228615	1175.342542	184.661735	-234.808213	1137.628454	188.650604	279.065680	927.446188	246.501464	-253.690083	898.383745	272.980381
5799	57.98000	16.674580	932.583627	160.633079	-13.858992	1487.351725	282.355175	-24.530362	1556.171912	439.219250	94.652498	938.251371	158.652186	-61.303552	926.915904	162.613955	105.261180	499.329173	180.678446	-104.470403	525.945893	337.493877	103.159972	86.893144	87.617006	-134.555486	210.773005	155.054323	99.403842	38.273221	49.918595	-133.347380	189.527945	111.140731	106.759102	21.233560	276.006360	-143.080116	87.685749	257.394743	168.657408	1452.802867	246.086847	-186.070052	1426.740368	230.488357	253.483343	1174.728982	188.826439	-234.426435	1137.776586	183.720787	277.462789	928.096127	255.818969	-255.469688	896.694916	261.466345
5800	57.99000	16.416500	932.430218	159.994670	-14.464460	1486.822633	282.224344	-25.611331	1555.870627	438.965308	94.353108	938.075824	157.793557	-61.520309	926.784631	162.195767	105.228182	498.318847	173.017685	-104.137598	527.363199	344.220534	101.504228	89.082843	71.563481	-134.361847	208.479718	172.009614	97.402438	41.548945	33.119887	-133.390873	185.941268	129.029943	105.578281	19.734936	256.940733	-142.013252	89.464355	277.811926	168.161300	1452.299189	247.264628	-186.272082	1426.321508	229.165697	253.738071	1174.115421	192.991143	-234.044656	1137.924719	178.790969	275.859897	928.746067	265.136474	-257.249294	895.006086	249.952310
5801	58.00000	16.158421	932.276808	159.356262	-15.069928	1486.293542	282.093512	-26.692299	1555.569343	438.711366	94.053717	937.900277	156.934927	-61.737065	926.653358	161.777578	105.195183	497.308521	165.356923	-103.804794	528.780506	350.947191	99.848484	91.272542	55.509957	-134.168208	206.186430	188.964905	95.401033	44.824669	16.321180	-133.434366	182.354591	146.919154	104.397459	18.236313	237.875106	-140.946388	91.242962	298.229109	167.665192	1451.795510	248.442410	-186.474113	1425.902648	227.843037	253.992800	1173.501861	197.155847	-233.662877	1138.072851	173.861151	274.257005	929.396006	274.453980	-259.028899	893.317257	238.438274
